<?xml version="1.0" standalone="no"?>
<!DOCTYPE svg PUBLIC "-//W3C//DTD SVG 20010904//EN"
 "http://www.w3.org/TR/2001/REC-SVG-20010904/DTD/svg10.dtd">
<svg version="1.0" xmlns="http://www.w3.org/2000/svg"
 width="400.000000pt" height="400.000000pt" viewBox="0 0 400.000000 400.000000"
 preserveAspectRatio="xMidYMid meet">
<metadata>
Created by potrace 1.11, written by Peter Selinger 2001-2013
</metadata>
<g transform="translate(0.000000,400.000000) scale(0.100000,-0.100000)"
fill="#000000" stroke="none">
<path d="M1828 3975 c-1 -1 -28 -5 -58 -9 -81 -9 -116 -15 -200 -33 -41 -10
-77 -18 -80 -18 -67 -13 -365 -127 -380 -144 -3 -4 -29 -17 -57 -30 -29 -14
-53 -27 -53 -30 0 -3 -15 -12 -32 -20 -18 -8 -35 -17 -38 -21 -3 -3 -34 -26
-70 -50 -36 -24 -70 -48 -76 -54 -7 -6 -31 -27 -55 -46 -120 -96 -290 -287
-384 -430 -61 -92 -164 -289 -165 -312 0 -9 -3 -18 -7 -20 -11 -4 -79 -207
-97 -288 -14 -59 -18 -79 -30 -147 -21 -109 -28 -383 -14 -534 6 -62 28 -184
53 -289 7 -32 56 -180 70 -214 9 -20 14 -37 13 -38 -2 -4 124 -252 132 -258 4
-3 17 -24 30 -47 13 -24 27 -43 32 -43 4 0 8 -4 8 -10 0 -19 123 -171 209
-258 111 -113 150 -147 252 -221 46 -33 89 -64 94 -68 57 -44 312 -166 434
-208 101 -34 281 -75 406 -92 144 -19 463 -7 610 24 45 9 111 24 120 27 6 1
37 10 70 20 194 56 428 173 595 297 101 75 127 98 225 194 76 76 114 118 178
200 119 153 232 364 301 563 19 56 36 104 36 107 0 3 0 6 1 8 0 1 2 9 4 17 2
8 8 38 15 65 35 151 45 255 44 460 -1 217 -12 301 -64 500 -23 86 -83 251
-108 300 -9 17 -17 32 -17 35 -1 5 -40 78 -88 165 -12 22 -24 42 -27 45 -3 3
-26 34 -50 70 -24 36 -48 70 -54 76 -6 6 -27 31 -46 55 -54 68 -197 208 -280
274 -41 33 -76 63 -78 68 -2 4 -8 7 -13 7 -5 0 -38 20 -74 45 -36 24 -65 41
-65 38 0 -3 -8 1 -17 10 -39 34 -324 161 -413 182 -8 3 -51 13 -95 25 -83 21
-180 39 -250 47 -48 5 -392 13 -397 8z m1194 -910 c88 -22 143 -52 198 -108
47 -48 91 -123 112 -192 16 -55 22 -119 22 -265 l1 -145 -155 0 -155 0 0 145
c-2 201 -18 241 -114 273 -68 22 -141 6 -184 -41 -42 -47 -44 -77 -43 -737 1
-609 2 -631 21 -669 28 -56 62 -77 131 -83 77 -6 139 24 168 81 18 35 20 60
20 270 l1 231 -75 5 -75 5 1 135 c1 74 2 141 3 148 1 9 54 12 230 12 l228 0
-2 -392 c-1 -273 -6 -410 -15 -448 -30 -135 -116 -250 -223 -302 -142 -69
-371 -67 -515 4 -110 56 -197 189 -220 338 -4 25 -7 333 -7 685 0 699 1 718
57 832 65 133 173 206 338 231 73 11 182 5 252 -13z m-2061 -37 c1 -18 3 -42
4 -53 2 -11 6 -54 9 -95 4 -41 9 -84 11 -95 2 -11 7 -45 10 -75 2 -30 9 -95
15 -145 5 -49 12 -117 15 -150 3 -33 8 -76 10 -95 2 -19 6 -57 10 -85 3 -27 7
-66 9 -85 3 -19 7 -71 11 -115 3 -44 8 -87 10 -95 2 -8 7 -44 10 -80 3 -36 8
-81 10 -100 2 -19 7 -60 10 -90 24 -211 27 -235 31 -239 2 -2 4 18 5 45 0 27
2 57 4 67 2 10 6 48 9 85 6 66 21 223 32 332 3 30 7 71 9 90 2 19 6 69 9 110
4 41 9 91 11 110 5 41 12 108 20 205 4 39 8 81 10 95 2 14 7 63 10 110 4 47 8
92 10 100 2 9 6 56 10 105 3 50 8 99 10 110 2 11 4 30 4 43 1 22 2 22 161 22
88 0 160 -3 160 -7 0 -5 4 -46 9 -93 5 -47 12 -115 16 -152 3 -37 8 -77 10
-90 2 -13 6 -59 10 -103 3 -44 7 -93 9 -110 2 -16 7 -61 11 -100 4 -38 8 -83
10 -100 2 -16 7 -61 10 -100 3 -38 8 -90 11 -115 9 -87 14 -136 19 -190 3 -30
7 -75 10 -100 3 -25 7 -67 9 -95 10 -102 17 -171 21 -190 2 -11 4 -38 5 -60
l2 -40 8 45 c4 25 11 80 15 123 3 43 8 88 10 100 2 12 6 58 10 102 4 44 8 87
10 95 1 8 6 49 9 90 4 41 9 91 11 110 2 19 6 62 10 95 3 33 7 76 10 95 2 19 7
67 10 105 4 39 8 77 10 85 2 8 6 53 10 100 4 47 8 92 10 100 2 8 6 49 9 90 4
41 9 90 11 108 2 19 7 68 11 110 3 43 8 80 11 85 2 4 69 7 149 7 80 0 143 -3
141 -7 -3 -5 -8 -37 -11 -73 -4 -36 -9 -76 -11 -90 -2 -14 -7 -54 -10 -90 -3
-36 -7 -76 -10 -90 -2 -14 -7 -52 -10 -85 -3 -33 -8 -78 -11 -100 -2 -22 -6
-60 -9 -85 -3 -25 -9 -85 -15 -135 -6 -49 -12 -110 -15 -135 -3 -25 -9 -83
-15 -130 -5 -47 -12 -110 -15 -140 -3 -30 -7 -71 -10 -90 -2 -19 -7 -60 -10
-90 -3 -30 -8 -71 -10 -90 -2 -19 -7 -60 -10 -90 -3 -30 -8 -71 -10 -90 -3
-19 -7 -55 -9 -80 -12 -112 -18 -167 -21 -190 -2 -14 -7 -56 -11 -95 -4 -38
-8 -79 -10 -90 -1 -11 -3 -23 -3 -27 -1 -5 -100 -8 -221 -8 -203 0 -220 1
-221 18 0 9 -2 28 -4 42 -1 14 -6 55 -9 92 -4 37 -9 77 -11 90 -2 13 -6 58
-10 101 -4 43 -8 88 -10 100 -2 12 -6 49 -10 82 -3 33 -8 79 -10 103 -3 23 -7
61 -9 85 -5 39 -13 112 -21 182 -2 17 -7 65 -11 108 -9 106 -16 96 -29 -48 -3
-38 -8 -83 -10 -100 -7 -52 -14 -118 -20 -180 -3 -33 -8 -77 -10 -97 -12 -97
-14 -117 -20 -173 -12 -131 -16 -171 -20 -190 -4 -21 -18 -169 -19 -197 0 -17
-18 -18 -228 -18 -175 0 -228 3 -229 13 0 6 -2 21 -4 32 -2 11 -7 49 -10 85
-4 36 -8 72 -10 80 -2 8 -7 49 -10 90 -3 41 -8 82 -10 90 -2 8 -7 49 -10 90
-4 41 -8 86 -10 100 -2 14 -6 50 -10 80 -3 30 -7 71 -10 90 -2 19 -7 58 -10
85 -3 28 -12 109 -20 180 -8 72 -17 155 -20 185 -6 65 -15 145 -20 180 -2 14
-7 53 -10 87 -3 34 -7 70 -9 80 -2 10 -7 56 -12 103 -4 47 -8 87 -9 90 -1 3
-5 39 -9 80 -4 41 -9 87 -11 103 -12 103 -18 159 -16 170 0 4 73 7 161 7 l160
0 1 -32z"/>
</g>
</svg>
